<?xml version="1.0" standalone="no"?>
<!DOCTYPE svg PUBLIC "-//W3C//DTD SVG 20010904//EN"
 "http://www.w3.org/TR/2001/REC-SVG-20010904/DTD/svg10.dtd">
<svg version="1.0" xmlns="http://www.w3.org/2000/svg"
 width="500.000000pt" height="500.000000pt" viewBox="0 0 500.000000 500.000000"
 preserveAspectRatio="xMidYMid meet">
<metadata>
Created by potrace 1.14, written by Peter Selinger 2001-2017
</metadata>
<g transform="translate(0.000000,500.000000) scale(0.100000,-0.100000)"
fill="#000000" stroke="none">
<path d="M2434 2978 l-19 -23 23 19 c21 18 27 26 19 26 -2 0 -12 -10 -23 -22z"/>
<path d="M2510 2962 c0 -10 7 -27 15 -38 14 -18 15 -17 5 8 -12 36 3 45 38 22
l27 -17 -19 21 c-24 27 -66 30 -66 4z"/>
<path d="M2320 2873 l-55 -58 58 55 c31 30 57 56 57 57 0 8 -10 -1 -60 -54z"/>
<path d="M2424 2876 c-6 -16 29 -91 48 -102 10 -6 10 -5 1 7 -7 9 -20 32 -28
53 -15 35 -15 37 7 46 l23 9 -23 0 c-12 1 -25 -5 -28 -13z"/>
<path d="M1813 2831 c-2 -32 14 -41 76 -41 25 0 32 4 27 15 -3 8 2 18 11 23
11 7 1 11 -36 16 -28 4 -57 9 -64 11 -7 3 -13 -5 -14 -24z"/>
<path d="M2671 2756 c-25 -26 -40 -49 -36 -56 5 -8 12 -6 26 6 10 9 16 21 12
27 -3 5 -1 7 4 4 13 -8 40 23 40 46 0 9 -1 17 -2 17 0 0 -20 -20 -44 -44z"/>
<path d="M1750 2766 c0 -16 63 -42 132 -55 37 -6 48 -5 52 6 9 22 8 23 -23 23
-16 0 -58 9 -93 20 -34 11 -64 20 -65 20 -2 0 -3 -6 -3 -14z"/>
<path d="M2305 2770 c-6 -10 20 -80 30 -80 3 0 1 9 -5 19 -5 11 -10 29 -10 40
0 18 3 19 26 11 35 -14 42 -12 20 5 -23 17 -52 20 -61 5z"/>
<path d="M2711 2706 c-25 -27 -23 -52 8 -80 26 -24 62 -16 81 16 13 25 13 30
-2 55 -22 37 -57 41 -87 9z"/>
<path d="M2426 2511 c-135 -135 -164 -169 -150 -175 16 -6 15 -9 -7 -34 -13
-16 -7 -10 14 11 31 33 35 42 25 55 -11 13 -10 15 6 9 24 -9 64 22 44 34 -9 6
26 47 117 139 71 71 127 130 125 130 -3 0 -81 -76 -174 -169z"/>
<path d="M2193 2644 c-3 -8 -1 -25 5 -37 10 -20 10 -20 9 8 -2 27 1 30 28 28
22 -2 26 0 15 7 -23 15 -50 12 -57 -6z"/>
<path d="M2845 2611 c-14 -28 -13 -31 14 -60 34 -37 53 -39 81 -9 28 30 25 43
-13 72 -44 34 -63 33 -82 -3z"/>
<path d="M2601 2601 c-28 -22 -23 -45 19 -86 l30 -29 25 24 c30 29 31 43 4 81
-23 33 -44 36 -78 10z"/>
<path d="M1666 2533 c-16 -34 -16 -38 -1 -49 21 -15 163 -54 198 -54 21 0 27
5 27 23 0 12 3 31 6 43 5 19 0 22 -48 27 -46 4 -95 18 -149 41 -11 5 -20 -4
-33 -31z"/>
<path d="M2073 2544 c-8 -21 21 -74 60 -111 27 -26 27 -24 -7 20 -36 49 -46
91 -23 100 7 3 5 6 -6 6 -10 1 -20 -6 -24 -15z"/>
<path d="M2925 2478 l-70 -73 73 70 c39 38 72 71 72 72 0 8 -11 -2 -75 -69z"/>
<path d="M2260 2515 c13 -14 26 -25 28 -25 3 0 -5 11 -18 25 -13 14 -26 25
-28 25 -3 0 5 -11 18 -25z"/>
<path d="M3137 2507 c-12 -13 -29 -32 -37 -43 -8 -10 -33 -41 -55 -68 -67 -82
-354 -480 -349 -485 8 -9 49 39 182 211 120 156 251 337 282 391 15 24 3 21
-23 -6z"/>
<path d="M2493 2476 l-38 -35 30 -31 c36 -37 69 -37 98 1 18 25 18 28 2 53
-32 48 -50 51 -92 12z"/>
<path d="M2650 2438 c-28 -30 -25 -53 10 -78 38 -27 76 -20 92 15 10 22 8 29
-17 55 -34 36 -57 38 -85 8z"/>
<path d="M2390 2380 c-27 -27 -25 -41 10 -75 l30 -29 25 24 c31 29 31 41 3 67
-37 33 -46 35 -68 13z"/>
<path d="M2785 2348 l-40 -43 43 40 c39 36 47 45 39 45 -2 0 -21 -19 -42 -42z"/>
<path d="M2498 2286 c-28 -20 -21 -41 20 -70 66 -45 102 -10 51 49 -34 38 -45
41 -71 21z"/>
<path d="M2689 2263 l-34 -38 38 34 c20 19 37 36 37 38 0 8 -8 0 -41 -34z"/>
<path d="M2416 2196 c-14 -19 -26 -37 -26 -41 0 -3 21 -15 46 -26 43 -20 47
-20 65 -3 27 24 24 59 -7 83 -36 29 -47 27 -78 -13z"/>
<path d="M2550 2134 c-36 -36 -74 -70 -85 -74 -14 -6 -15 -9 -5 -9 9 -1 49 33
90 74 41 41 72 75 69 75 -2 0 -34 -30 -69 -66z"/>
</g>
</svg>
